<svg xmlns="http://www.w3.org/2000/svg" viewBox="0 0 22 30"><defs><style>.cls-1{fill:#212121;}</style></defs><g id="Layer_2" data-name="Layer 2"><g id="_20_Bicycle_Line_Icon_Set" data-name="20 Bicycle Line Icon Set"><g id="Action_Cam" data-name="Action Cam"><path class="cls-1" d="M11,30a5,5,0,0,1-3.75-1.69A1,1,0,0,1,8.75,27a3,3,0,1,0,0-4,1,1,0,0,1-1.5-1.33A5,5,0,1,1,11,30Z"/><path class="cls-1" d="M8,29H4a1,1,0,0,1-1-1V22a1,1,0,0,1,1-1H8a1,1,0,0,1,1,1v6A1,1,0,0,1,8,29ZM5,27H7V23H5Z"/><path class="cls-1" d="M11,22a1,1,0,0,1-1-1V16a1,1,0,0,1,2,0v5A1,1,0,0,1,11,22Z"/><path class="cls-1" d="M13,19H9a1,1,0,0,1,0-2h4a1,1,0,0,1,0,2Z"/><path class="cls-1" d="M21,16H1a1,1,0,0,1-1-1V1A1,1,0,0,1,1,0H21a1,1,0,0,1,1,1V15A1,1,0,0,1,21,16ZM2,14H20V2H2Z"/><path class="cls-1" d="M14,12a4,4,0,1,1,4-4A4,4,0,0,1,14,12Zm0-6a2,2,0,1,0,2,2A2,2,0,0,0,14,6Z"/><path class="cls-1" d="M7,6H5A1,1,0,0,1,5,4H7A1,1,0,0,1,7,6Z"/><path class="cls-1" d="M6,11a1,1,0,0,1-.38-.08,1.15,1.15,0,0,1-.33-.21,1,1,0,0,1-.21-1.09,1.15,1.15,0,0,1,.21-.33,1,1,0,0,1,1.42,0,1.15,1.15,0,0,1,.21.33.94.94,0,0,1,0,.76,1.15,1.15,0,0,1-.21.33,1.15,1.15,0,0,1-.33.21A1,1,0,0,1,6,11Z"/></g></g></g></svg>