<svg xmlns="http://www.w3.org/2000/svg" viewBox="0 0 28 30"><defs><style>.cls-1{fill:#212121;}</style></defs><g id="Layer_2" data-name="Layer 2"><g id="_20_Bicycle_Line_Icon_Set" data-name="20 Bicycle Line Icon Set"><g id="Airpump"><path class="cls-1" d="M12,30H6a1,1,0,0,1-1-1V10A1,1,0,0,1,6,9h6a1,1,0,0,1,1,1V29A1,1,0,0,1,12,30ZM7,28h4V11H7Z"/><path class="cls-1" d="M14,5H4A1,1,0,0,1,3,4V1A1,1,0,0,1,4,0H14a1,1,0,0,1,1,1V4A1,1,0,0,1,14,5ZM5,3h8V2H5Z"/><path class="cls-1" d="M9,11a1,1,0,0,1-1-1V4a1,1,0,0,1,2,0v6A1,1,0,0,1,9,11Z"/><path class="cls-1" d="M16,30H12a1,1,0,0,1-1-1V21a1,1,0,0,1,1-1h4a1,1,0,0,1,1,1v8A1,1,0,0,1,16,30Zm-3-2h2V22H13Z"/><path class="cls-1" d="M6,30H1a1,1,0,0,1,0-2H6a1,1,0,0,1,0,2Z"/><path class="cls-1" d="M18.5,27H16a1,1,0,0,1,0-2h2.5A1.5,1.5,0,0,0,20,23.5v-13a3.5,3.5,0,0,1,7,0V23a1,1,0,0,1-2,0V10.5a1.5,1.5,0,0,0-3,0v13A3.5,3.5,0,0,1,18.5,27Z"/><rect class="cls-1" x="24" y="22" width="4" height="3" rx="1"/><path class="cls-1" d="M9,23a1,1,0,0,1-1-1V17a1,1,0,0,1,2,0v5A1,1,0,0,1,9,23Z"/></g></g></g></svg>