<svg xmlns="http://www.w3.org/2000/svg" viewBox="0 0 27 30"><defs><style>.cls-1{fill:#212121;}</style></defs><g id="Layer_2" data-name="Layer 2"><g id="_20_Bicycle_Line_Icon_Set" data-name="20 Bicycle Line Icon Set"><g id="Bicycle_Lock" data-name="Bicycle Lock"><path class="cls-1" d="M13,7H1A1,1,0,0,1,0,6V2A1,1,0,0,1,1,1H13a1,1,0,0,1,1,1V6A1,1,0,0,1,13,7ZM2,5H12V3H2Z"/><path class="cls-1" d="M21,8H13a1,1,0,0,1-1-1V1a1,1,0,0,1,1-1h8a1,1,0,0,1,1,1V7A1,1,0,0,1,21,8ZM14,6h6V2H14Z"/><rect class="cls-1" x="23" y="1" width="4" height="6" rx="1"/><path class="cls-1" d="M24,5H21a1,1,0,0,1,0-2h3a1,1,0,0,1,0,2Z"/><path class="cls-1" d="M12,30a8,8,0,0,1-8-8V6A1,1,0,0,1,6,6V22a6,6,0,0,0,12,0V7a1,1,0,0,1,2,0V22A8,8,0,0,1,12,30Z"/><path class="cls-1" d="M12,27a5,5,0,0,1-5-5V6A1,1,0,0,1,9,6V22a3,3,0,0,0,6,0V7a1,1,0,0,1,2,0V22A5,5,0,0,1,12,27Z"/><path class="cls-1" d="M10,10H3A1,1,0,0,1,3,8h7a1,1,0,0,1,0,2Z"/><path class="cls-1" d="M21,11H14a1,1,0,0,1,0-2h7a1,1,0,0,1,0,2Z"/></g></g></g></svg>