<svg xmlns="http://www.w3.org/2000/svg" viewBox="0 0 30 20"><defs><style>.cls-1{fill:#212121;}</style></defs><g id="Layer_2" data-name="Layer 2"><g id="_20_Bicycle_Line_Icon_Set" data-name="20 Bicycle Line Icon Set"><g id="Bicycle"><path class="cls-1" d="M25,20a5,5,0,1,1,5-5A5,5,0,0,1,25,20Zm0-8a3,3,0,1,0,3,3A3,3,0,0,0,25,12Z"/><path class="cls-1" d="M5,20a5,5,0,1,1,5-5A5,5,0,0,1,5,20Zm0-8a3,3,0,1,0,3,3A3,3,0,0,0,5,12Z"/><path class="cls-1" d="M25,16a1,1,0,0,1-1-.82l-2-11a1,1,0,1,1,2-.36l2,11a1,1,0,0,1-.8,1.16Z"/><path class="cls-1" d="M15,17a2,2,0,1,1,2-2A2,2,0,0,1,15,17Zm0-2Z"/><path class="cls-1" d="M14,16H5a1,1,0,0,1-.92-.62,1,1,0,0,1,.21-1.09l7-7A1.12,1.12,0,0,1,11.91,7l11-1a1,1,0,0,1,.8,1.71l-7,7a1,1,0,0,1-1.42-1.42l5.05-5L12.45,9l-5,5H14a1,1,0,0,1,0,2Z"/><path class="cls-1" d="M15,16a1,1,0,0,1-.91-.59l-4-9a1,1,0,0,1,1.82-.82l4,9a1,1,0,0,1-.5,1.32A1,1,0,0,1,15,16Z"/><path class="cls-1" d="M12,7H10a1,1,0,0,1,0-2h2a1,1,0,0,1,0,2Z"/><path class="cls-1" d="M24.5,5H21a1,1,0,0,1,0-2h3.5a.5.5,0,0,0,0-1H24a1,1,0,0,1,0-2h.5a2.5,2.5,0,0,1,0,5Z"/></g></g></g></svg>