<svg xmlns="http://www.w3.org/2000/svg" viewBox="0 0 30 14"><defs><style>.cls-1{fill:#212121;}</style></defs><g id="Layer_2" data-name="Layer 2"><g id="_20_Bicycle_Line_Icon_Set" data-name="20 Bicycle Line Icon Set"><g id="Chain"><path class="cls-1" d="M23,14a7,7,0,1,1,7-7A7,7,0,0,1,23,14ZM23,2a5,5,0,1,0,5,5A5,5,0,0,0,23,2Z"/><path class="cls-1" d="M4,11A4,4,0,1,1,8,7,4,4,0,0,1,4,11ZM4,5A2,2,0,1,0,6,7,2,2,0,0,0,4,5Z"/><path class="cls-1" d="M22,13.92h-.16L3.42,11a1,1,0,0,1,.32-2l18.45,2.95a1,1,0,0,1-.16,2Z"/><path class="cls-1" d="M3.58,5a1,1,0,0,1-.16-2L21.87.09A1,1,0,0,1,23,.92a1,1,0,0,1-.83,1.15L3.74,5Z"/><path class="cls-1" d="M23,9a2,2,0,1,1,2-2A2,2,0,0,1,23,9Zm0-2Z"/></g></g></g></svg>