<svg xmlns="http://www.w3.org/2000/svg" viewBox="0 0 30 30"><defs><style>.cls-1{fill:#212121;}</style></defs><g id="Layer_2" data-name="Layer 2"><g id="_20_Bicycle_Line_Icon_Set" data-name="20 Bicycle Line Icon Set"><g id="Gear"><path class="cls-1" d="M15,28A13,13,0,1,1,28,15,13,13,0,0,1,15,28ZM15,4A11,11,0,1,0,26,15,11,11,0,0,0,15,4Z"/><path class="cls-1" d="M3,16H1a1,1,0,0,1,0-2H3a1,1,0,0,1,0,2Z"/><path class="cls-1" d="M29,16H27a1,1,0,0,1,0-2h2a1,1,0,0,1,0,2Z"/><path class="cls-1" d="M15,30a1,1,0,0,1-1-1V27a1,1,0,0,1,2,0v2A1,1,0,0,1,15,30Z"/><path class="cls-1" d="M15,4a1,1,0,0,1-1-1V1a1,1,0,0,1,2,0V3A1,1,0,0,1,15,4Z"/><path class="cls-1" d="M8,28.12a1,1,0,0,1-.87-1.5l1-1.73a1,1,0,0,1,1.74,1l-1,1.73A1,1,0,0,1,8,28.12Z"/><path class="cls-1" d="M21,5.61a1,1,0,0,1-.5-.14,1,1,0,0,1-.37-1.36l1-1.73a1,1,0,0,1,1.74,1l-1,1.73A1,1,0,0,1,21,5.61Z"/><path class="cls-1" d="M27.12,23a1,1,0,0,1-.5-.13l-1.73-1a1,1,0,0,1,1-1.74l1.73,1a1,1,0,0,1-.5,1.87Z"/><path class="cls-1" d="M4.61,10a1,1,0,0,1-.5-.13l-1.73-1a1,1,0,0,1,1-1.74l1.73,1A1,1,0,0,1,4.61,10Z"/><path class="cls-1" d="M2.88,23a1,1,0,0,1-.5-1.87l1.73-1a1,1,0,0,1,1,1.74l-1.73,1A1,1,0,0,1,2.88,23Z"/><path class="cls-1" d="M25.39,10a1,1,0,0,1-.5-1.87l1.73-1a1,1,0,0,1,1,1.74l-1.73,1A1,1,0,0,1,25.39,10Z"/><path class="cls-1" d="M22,28.12a1,1,0,0,1-.87-.5l-1-1.73a1,1,0,0,1,1.74-1l1,1.73a1,1,0,0,1-.87,1.5Z"/><path class="cls-1" d="M9,5.61a1,1,0,0,1-.87-.5l-1-1.73a1,1,0,0,1,1.74-1l1,1.73A1,1,0,0,1,9.5,5.47,1,1,0,0,1,9,5.61Z"/><path class="cls-1" d="M15,20a5,5,0,1,1,5-5A5,5,0,0,1,15,20Zm0-8a3,3,0,1,0,3,3A3,3,0,0,0,15,12Z"/><path class="cls-1" d="M18,23.42a1,1,0,0,1-.38-1.93A7,7,0,0,0,21.5,17.6a1,1,0,1,1,1.86.74,9.07,9.07,0,0,1-5,5A1,1,0,0,1,18,23.42Z"/><path class="cls-1" d="M7.57,13A1,1,0,0,1,7.2,13a1,1,0,0,1-.56-1.3,9.07,9.07,0,0,1,5-5,1,1,0,0,1,.76,1.86A7,7,0,0,0,8.5,12.4,1,1,0,0,1,7.57,13Z"/><path class="cls-1" d="M22.42,13a1,1,0,0,1-.93-.62A7,7,0,0,0,17.6,8.5a1,1,0,0,1,.74-1.86,9.07,9.07,0,0,1,5,5,1,1,0,0,1-.56,1.31A1,1,0,0,1,22.42,13Z"/><path class="cls-1" d="M12,23.43a1,1,0,0,1-.37-.07,9.07,9.07,0,0,1-5-5,1,1,0,0,1,1.86-.76A7,7,0,0,0,12.4,21.5,1,1,0,0,1,12,23.43Z"/></g></g></g></svg>