<svg xmlns="http://www.w3.org/2000/svg" viewBox="0 0 30.34 25.55"><defs><style>.cls-1{fill:#212121;}</style></defs><g id="Layer_2" data-name="Layer 2"><g id="_20_Bicycle_Line_Icon_Set" data-name="20 Bicycle Line Icon Set"><g id="Helmet"><path class="cls-1" d="M20,17.38a10.22,10.22,0,0,1-3.06-.48l-1.48-.46a1.75,1.75,0,0,1-1.15-1.17,4.29,4.29,0,0,0-4.79-2.93,4.43,4.43,0,0,0-1.87.81L7,13.59a4.54,4.54,0,0,1-3.86.7A4.71,4.71,0,0,1,.09,11.62a1,1,0,0,1,0-.87l1-1.9A15.2,15.2,0,0,1,8.27,1.23h0c6.77-3.15,16-.1,21.85,7.26a1,1,0,0,1,.1,1.09L29,11.92A10.21,10.21,0,0,1,20,17.38Zm-3.81-2.81L17.5,15a8.22,8.22,0,0,0,9.72-4l.92-1.76C22.82,3,14.91.35,9.11,3.05h0a13.23,13.23,0,0,0-6.2,6.68l-.78,1.48a2.65,2.65,0,0,0,1.53,1.15A2.58,2.58,0,0,0,5.83,12l.62-.45a6.42,6.42,0,0,1,2.72-1.16A6.28,6.28,0,0,1,16.15,14.57Zm0,.09h0ZM8.69,2.14h0Z"/><path class="cls-1" d="M19.45,12.87l-.92,0-7-.4a1,1,0,1,1,.12-2l7,.41a14.36,14.36,0,0,0,6.08-1L29,8.18a1,1,0,0,1,1.3.56A1,1,0,0,1,29.7,10l-4.23,1.68A16.31,16.31,0,0,1,19.45,12.87Z"/><path class="cls-1" d="M9.77,6.63A1,1,0,0,1,9.1,4.89a7.56,7.56,0,0,1,3.14-1.71,7.79,7.79,0,0,1,5.3.54A1,1,0,0,1,18,5.06a1,1,0,0,1-1.33.46,5.85,5.85,0,0,0-3.93-.41,5.64,5.64,0,0,0-2.31,1.26A1,1,0,0,1,9.77,6.63Z"/><path class="cls-1" d="M18.64,10.27h-.09a1,1,0,0,1-1-1,1,1,0,0,1,1-1h.09A13.69,13.69,0,0,0,21.43,8a13.83,13.83,0,0,0,2.16-.67,1,1,0,0,1,1.3.54,1,1,0,0,1-.55,1.31,16.32,16.32,0,0,1-2.49.77A15,15,0,0,1,18.64,10.27Z"/><path class="cls-1" d="M4.68,10.76a1.09,1.09,0,0,1-.39-.08,1,1,0,0,1-.53-1.32A11.93,11.93,0,0,1,4.64,7.7,1,1,0,0,1,6.33,8.77a9.55,9.55,0,0,0-.73,1.38A1,1,0,0,1,4.68,10.76Z"/><path class="cls-1" d="M14,21.8a11.92,11.92,0,0,1-1.6-.11,1,1,0,0,1,.3-2c.18,0,4.25.63,6-1.77a4.12,4.12,0,0,0,.66-1.42,1,1,0,0,1,1.94.49,6,6,0,0,1-1,2.12C18.64,21.4,15.79,21.8,14,21.8Z"/><path class="cls-1" d="M12.33,22.77a2.06,2.06,0,0,1-.93-.23,2,2,0,0,1-.83-2.7,1.93,1.93,0,0,1,1.17-1,2,2,0,0,1,2.37,2.84h0a2,2,0,0,1-1.18,1A2.08,2.08,0,0,1,12.33,22.77Z"/><path class="cls-1" d="M12.46,25.55h0a1,1,0,0,1-1-1l.08-3.85a1,1,0,0,1,1-1,1,1,0,0,1,1,1l-.08,3.85A1,1,0,0,1,12.46,25.55Z"/><path class="cls-1" d="M12.33,21.77a.9.9,0,0,1-.42-.1,1,1,0,0,1-.48-1.33,11.59,11.59,0,0,0,.93-2.77,11.73,11.73,0,0,0,0-4.61,1,1,0,0,1,2-.38,13.91,13.91,0,0,1,0,5.38,14.51,14.51,0,0,1-1.08,3.24A1,1,0,0,1,12.33,21.77Z"/></g></g></g></svg>