<svg xmlns="http://www.w3.org/2000/svg" viewBox="0 0 30 30"><defs><style>.cls-1{fill:#212121;}</style></defs><g id="Layer_2" data-name="Layer 2"><g id="_20_Bicycle_Line_Icon_Set" data-name="20 Bicycle Line Icon Set"><g id="Jersey"><path class="cls-1" d="M23,30H7a1,1,0,0,1-1-1V16H1a1,1,0,0,1-1-1V8A5,5,0,0,1,5,3H25a5,5,0,0,1,5,5v7a1,1,0,0,1-1,1H24V29A1,1,0,0,1,23,30ZM8,28H22V15a1,1,0,0,1,1-1h5V8a3,3,0,0,0-3-3H5A3,3,0,0,0,2,8v6H7a1,1,0,0,1,1,1Z"/><path class="cls-1" d="M7,16a1,1,0,0,1-1-1V10a1,1,0,0,1,2,0v5A1,1,0,0,1,7,16Z"/><path class="cls-1" d="M23,16a1,1,0,0,1-1-1V10a1,1,0,0,1,2,0v5A1,1,0,0,1,23,16Z"/><path class="cls-1" d="M15,30a1,1,0,0,1-1-1V1a1,1,0,0,1,2,0V29A1,1,0,0,1,15,30Z"/><path class="cls-1" d="M20,5a1,1,0,0,1-1-1V2H11V4A1,1,0,0,1,9,4V1a1,1,0,0,1,1-1H20a1,1,0,0,1,1,1V4A1,1,0,0,1,20,5Z"/><path class="cls-1" d="M1.44,9A4.6,4.6,0,0,1,.86,9a1,1,0,0,1,.28-2,2.68,2.68,0,0,0,2.15-.72A2.66,2.66,0,0,0,4,4.14a1,1,0,0,1,2-.28A4.71,4.71,0,0,1,4.71,7.71,4.59,4.59,0,0,1,1.44,9Z"/><path class="cls-1" d="M28.56,9a4.59,4.59,0,0,1-3.27-1.32A4.71,4.71,0,0,1,24,3.86,1,1,0,0,1,25.14,3,1,1,0,0,1,26,4.14a2.66,2.66,0,0,0,.72,2.15A2.68,2.68,0,0,0,28.86,7a1,1,0,0,1,.28,2A4.6,4.6,0,0,1,28.56,9Z"/><path class="cls-1" d="M19,30a1,1,0,0,1-1-.86A4.53,4.53,0,0,1,23.14,24a1,1,0,0,1-.28,2A2.54,2.54,0,0,0,20,28.86,1,1,0,0,1,19.14,30Z"/><path class="cls-1" d="M11,30h-.14A1,1,0,0,1,10,28.86,2.54,2.54,0,0,0,7.14,26a1,1,0,1,1-.28-2,4.68,4.68,0,0,1,3.85,1.28A4.71,4.71,0,0,1,12,29.14,1,1,0,0,1,11,30Z"/><path class="cls-1" d="M23,22H7a1,1,0,0,1,0-2H23a1,1,0,0,1,0,2Z"/></g></g></g></svg>