<svg xmlns="http://www.w3.org/2000/svg" viewBox="0 0 18 30"><defs><style>.cls-1{fill:#212121;}</style></defs><g id="Layer_2" data-name="Layer 2"><g id="_20_Bicycle_Line_Icon_Set" data-name="20 Bicycle Line Icon Set"><g id="Monocycle"><path class="cls-1" d="M9,30a9,9,0,1,1,9-9A9,9,0,0,1,9,30ZM9,14a7,7,0,1,0,7,7A7,7,0,0,0,9,14Z"/><path class="cls-1" d="M10.5,5h-3a2.5,2.5,0,0,1,0-5h3a2.5,2.5,0,0,1,0,5Zm-3-3a.5.5,0,0,0,0,1h3a.5.5,0,0,0,0-1Z"/><path class="cls-1" d="M9,14a1,1,0,0,1-1-1V4a1,1,0,0,1,2,0v9A1,1,0,0,1,9,14Z"/><path class="cls-1" d="M12,25a3.77,3.77,0,0,1-3.58-2.58l-.74-2.21A1.77,1.77,0,0,0,6,19a1,1,0,0,1,0-2,3.77,3.77,0,0,1,3.58,2.58l.74,2.21A1.77,1.77,0,0,0,12,23a1,1,0,0,1,0,2Z"/></g></g></g></svg>