<svg xmlns="http://www.w3.org/2000/svg" viewBox="0 0 30 30"><defs><style>.cls-1{fill:#212121;}</style></defs><g id="Layer_2" data-name="Layer 2"><g id="_20_Bicycle_Line_Icon_Set" data-name="20 Bicycle Line Icon Set"><g id="Pants"><path class="cls-1" d="M25,5H5A1,1,0,0,1,4,4V1A1,1,0,0,1,5,0H25a1,1,0,0,1,1,1V4A1,1,0,0,1,25,5ZM6,3H24V2H6Z"/><path class="cls-1" d="M29,30H17a1,1,0,0,1-1-.78l-1-4.61-1,4.61A1,1,0,0,1,13,30H1a1,1,0,0,1-.74-.32A1.05,1.05,0,0,1,0,28.92L1.86,5.72h0A3,3,0,0,1,4.8,3H25.2a3,3,0,0,1,2.94,2.72L30,28.92a1,1,0,0,1-.27.76A1,1,0,0,1,29,30ZM17.8,28H27.92L26.15,5.88A1,1,0,0,0,25.2,5H4.8a1,1,0,0,0-.95.88L2.08,28H12.2L14,19.78a1,1,0,0,1,2,0Z"/><path class="cls-1" d="M5,30H4.92A1,1,0,0,1,4,28.92l1-12A1,1,0,0,1,6.08,16,1,1,0,0,1,7,17.08l-1,12A1,1,0,0,1,5,30Z"/><path class="cls-1" d="M25,30a1,1,0,0,1-1-.92l-1-12A1,1,0,0,1,23.92,16a1,1,0,0,1,1.08.92l1,12A1,1,0,0,1,25.08,30Z"/><path class="cls-1" d="M3,15a1,1,0,0,1-.27-2,10,10,0,0,0,4.54-2.73A10.15,10.15,0,0,0,10,3.94a1,1,0,1,1,2,.12,12.16,12.16,0,0,1-3.28,7.63A11.94,11.94,0,0,1,3.27,15,.84.84,0,0,1,3,15Z"/><path class="cls-1" d="M27,15a.84.84,0,0,1-.27,0,12,12,0,0,1-5.46-3.27A12.19,12.19,0,0,1,18,4.06,1,1,0,0,1,18.94,3,1,1,0,0,1,20,3.94a10.18,10.18,0,0,0,2.72,6.37A10.12,10.12,0,0,0,27.27,13,1,1,0,0,1,27,15Z"/><path class="cls-1" d="M15,9a1,1,0,0,1-1-1V1a1,1,0,0,1,2,0V8A1,1,0,0,1,15,9Z"/><path class="cls-1" d="M15,17a1,1,0,0,1-1-1V14a1,1,0,0,1,2,0v2A1,1,0,0,1,15,17Z"/></g></g></g></svg>