<svg xmlns="http://www.w3.org/2000/svg" viewBox="0 0 30 17"><defs><style>.cls-1{fill:#212121;}</style></defs><g id="Layer_2" data-name="Layer 2"><g id="_20_Bicycle_Line_Icon_Set" data-name="20 Bicycle Line Icon Set"><g id="Road_Bike" data-name="Road Bike"><path class="cls-1" d="M25,17a5,5,0,1,1,5-5A5,5,0,0,1,25,17Zm0-8a3,3,0,1,0,3,3A3,3,0,0,0,25,9Z"/><path class="cls-1" d="M5,17a5,5,0,1,1,5-5A5,5,0,0,1,5,17ZM5,9a3,3,0,1,0,3,3A3,3,0,0,0,5,9Z"/><path class="cls-1" d="M15,14a2,2,0,1,1,2-2A2,2,0,0,1,15,14Zm0-2Z"/><path class="cls-1" d="M14,13H5a1,1,0,0,1-.75-1.66l7-8A1,1,0,0,1,12,3H23a1,1,0,0,1,.92.62,1,1,0,0,1-.21,1.09l-7,7a1,1,0,0,1-1.42-1.42L20.59,5H12.45L7.2,11H14a1,1,0,0,1,0,2Z"/><path class="cls-1" d="M15,13a1,1,0,0,1-.93-.63l-4-10a1,1,0,0,1,1.86-.74l4,10a1,1,0,0,1-.56,1.3A1,1,0,0,1,15,13Z"/><path class="cls-1" d="M12,3H10a1,1,0,0,1,0-2h2a1,1,0,0,1,0,2Z"/><path class="cls-1" d="M25,13a1,1,0,0,1-1-.82l-2-11a1,1,0,0,1,.21-.82A1,1,0,0,1,23,0h3.5a2.5,2.5,0,0,1,0,5H26a1,1,0,0,1,0-2h.5a.5.5,0,0,0,0-1H24.2L26,11.82a1,1,0,0,1-.8,1.16Z"/></g></g></g></svg>