<svg xmlns="http://www.w3.org/2000/svg" viewBox="0 0 22 30"><defs><style>.cls-1{fill:#212121;}</style></defs><g id="Layer_2" data-name="Layer 2"><g id="_20_Bicycle_Line_Icon_Set" data-name="20 Bicycle Line Icon Set"><g id="Saddle"><path class="cls-1" d="M16.05,30H6A6,6,0,0,1,0,24.05v-.79A4.4,4.4,0,0,1,1.06,20.4,26.44,26.44,0,0,0,7.15,7l.6-4.14a3.28,3.28,0,0,1,6.51,0L14.85,7A26.44,26.44,0,0,0,20.94,20.4h0A4.4,4.4,0,0,1,22,23.26v.79A6,6,0,0,1,16.05,30ZM11,2A1.28,1.28,0,0,0,9.73,3.11l-.6,4.15A28.43,28.43,0,0,1,2.58,21.7,2.41,2.41,0,0,0,2,23.26v.79A4,4,0,0,0,6,28h10.1A4,4,0,0,0,20,24.05v-.79a2.41,2.41,0,0,0-.58-1.56h0A28.43,28.43,0,0,1,12.87,7.26l-.6-4.14A1.28,1.28,0,0,0,11,2Z"/><path class="cls-1" d="M14,30a1,1,0,0,1-1-1,2,2,0,0,0-2-2,2,2,0,0,0-2,2,1,1,0,0,1-2,0,4,4,0,0,1,8,0A1,1,0,0,1,14,30Z"/><path class="cls-1" d="M11,27a1,1,0,0,1-1-1V23a1,1,0,0,1,2,0v3A1,1,0,0,1,11,27Z"/><path class="cls-1" d="M20,24a8.17,8.17,0,0,1-7-3.86,2.39,2.39,0,0,0-4.06,0A8.17,8.17,0,0,1,2,24a1,1,0,0,1,0-2,6.17,6.17,0,0,0,5.27-2.92,4.4,4.4,0,0,1,7.46,0A6.17,6.17,0,0,0,20,22a1,1,0,0,1,0,2Z"/><path class="cls-1" d="M11,19a1,1,0,0,1-1-1V10a1,1,0,0,1,2,0v8A1,1,0,0,1,11,19Z"/></g></g></g></svg>