<svg xmlns="http://www.w3.org/2000/svg" viewBox="0 0 30 16"><defs><style>.cls-1{fill:#212121;}</style></defs><g id="Layer_2" data-name="Layer 2"><g id="_20_Bicycle_Line_Icon_Set" data-name="20 Bicycle Line Icon Set"><g id="Shoes"><path class="cls-1" d="M23,16H4a4,4,0,0,1-4-4V2.81A2.81,2.81,0,0,1,2.81,0,2.8,2.8,0,0,1,5.39,1.55.81.81,0,0,0,6.12,2H8.88a.81.81,0,0,0,.73-.45A2.77,2.77,0,0,1,12.12,0a9,9,0,0,1,5.73,2.08l.76.62A9.92,9.92,0,0,0,25,5H26a4,4,0,0,1,4,4A7,7,0,0,1,23,16ZM2.88,2A.82.82,0,0,0,2,2.81V12a2,2,0,0,0,2,2H23a5,5,0,0,0,5-5,2,2,0,0,0-2-2H25a11.91,11.91,0,0,1-7.62-2.76l-.76-.63A7,7,0,0,0,12.12,2a.81.81,0,0,0-.73.45A2.77,2.77,0,0,1,8.88,4H6.12A2.77,2.77,0,0,1,3.61,2.45.81.81,0,0,0,2.88,2Z"/><path class="cls-1" d="M6,16a1,1,0,0,1-1-1V14a4,4,0,0,0-4-4A1,1,0,0,1,1,8a6,6,0,0,1,6,6v1A1,1,0,0,1,6,16Z"/><path class="cls-1" d="M20.12,12H9a1,1,0,0,1,0-2H20.12a5.94,5.94,0,0,0,4.21-1.74l2-2a1,1,0,1,1,1.42,1.42l-2,2A7.89,7.89,0,0,1,20.12,12Z"/><path class="cls-1" d="M15,6a1,1,0,0,1-.71-.29,1,1,0,0,1,0-1.42l2-2a1,1,0,1,1,1.42,1.42l-2,2A1,1,0,0,1,15,6Z"/><path class="cls-1" d="M20,8a1,1,0,0,1-.71-.29,1,1,0,0,1,0-1.42l1-1a1,1,0,1,1,1.42,1.42l-1,1A1,1,0,0,1,20,8Z"/><path class="cls-1" d="M10,8H7A1,1,0,0,1,7,6h3a1,1,0,0,1,0,2Z"/></g></g></g></svg>