<svg xmlns="http://www.w3.org/2000/svg" viewBox="0 0 19 30"><defs><style>.cls-1{fill:#212121;}</style></defs><g id="Layer_2" data-name="Layer 2"><g id="_20_Bicycle_Line_Icon_Set" data-name="20 Bicycle Line Icon Set"><g id="Smart_Watch" data-name="Smart Watch"><path class="cls-1" d="M15,26H3a3,3,0,0,1-3-3V7A3,3,0,0,1,3,4H15a3,3,0,0,1,3,3V23A3,3,0,0,1,15,26ZM3,6A1,1,0,0,0,2,7V23a1,1,0,0,0,1,1H15a1,1,0,0,0,1-1V7a1,1,0,0,0-1-1Z"/><path class="cls-1" d="M14,30H4a1,1,0,0,1-1-1V25a1,1,0,0,1,1-1H14a1,1,0,0,1,1,1v4A1,1,0,0,1,14,30ZM5,28h8V26H5Z"/><path class="cls-1" d="M14,6H4A1,1,0,0,1,3,5V1A1,1,0,0,1,4,0H14a1,1,0,0,1,1,1V5A1,1,0,0,1,14,6ZM5,4h8V2H5Z"/><path class="cls-1" d="M11,20a1,1,0,0,1-.89-.55L8,15.24l-.11.21A1,1,0,0,1,7,16H5a1,1,0,0,1,0-2H6.38l.73-1.45a1,1,0,0,1,1.78,0l1.8,3.58L11,14.76A1,1,0,0,1,12,14h1a1,1,0,0,1,0,2h-.22L12,19.24a1,1,0,0,1-.86.75Z"/><path class="cls-1" d="M18,11H17a1,1,0,0,1,0-2h1a1,1,0,0,1,0,2Z"/><path class="cls-1" d="M18,21H17a1,1,0,0,1,0-2h1a1,1,0,0,1,0,2Z"/></g></g></g></svg>