<svg xmlns="http://www.w3.org/2000/svg" viewBox="0 0 30 30"><defs><style>.cls-1{fill:#212121;}</style></defs><g id="Layer_2" data-name="Layer 2"><g id="_20_Bicycle_Line_Icon_Set" data-name="20 Bicycle Line Icon Set"><g id="Tire"><path class="cls-1" d="M15,30A15,15,0,1,1,30,15,15,15,0,0,1,15,30ZM15,2A13,13,0,1,0,28,15,13,13,0,0,0,15,2Z"/><path class="cls-1" d="M15,26A11,11,0,1,1,26,15,11,11,0,0,1,15,26ZM15,6a9,9,0,1,0,9,9A9,9,0,0,0,15,6Z"/><path class="cls-1" d="M15,18a3,3,0,1,1,3-3A3,3,0,0,1,15,18Zm0-4a1,1,0,1,0,1,1A1,1,0,0,0,15,14Z"/><path class="cls-1" d="M15,22a1,1,0,0,1-1-1V17a1,1,0,0,1,2,0v4A1,1,0,0,1,15,22Z"/><path class="cls-1" d="M13,16H9a1,1,0,0,1,0-2h4a1,1,0,0,1,0,2Z"/><path class="cls-1" d="M21,16H17a1,1,0,0,1,0-2h4a1,1,0,0,1,0,2Z"/><path class="cls-1" d="M15,14a1,1,0,0,1-1-1V9a1,1,0,0,1,2,0v4A1,1,0,0,1,15,14Z"/><path class="cls-1" d="M10.76,20.24a1,1,0,0,1-.71-.29,1,1,0,0,1,0-1.41l2.83-2.83a1,1,0,1,1,1.41,1.41L11.46,20A1,1,0,0,1,10.76,20.24Z"/><path class="cls-1" d="M13.59,14.59a1,1,0,0,1-.71-.3l-2.83-2.83a1,1,0,0,1,1.41-1.41l2.83,2.83a1,1,0,0,1,0,1.41A1,1,0,0,1,13.59,14.59Z"/><path class="cls-1" d="M19.24,20.24a1,1,0,0,1-.7-.29l-2.83-2.83a1,1,0,1,1,1.41-1.41L20,18.54A1,1,0,0,1,20,20,1,1,0,0,1,19.24,20.24Z"/><path class="cls-1" d="M16.41,14.59a1,1,0,0,1-.7-.3,1,1,0,0,1,0-1.41l2.83-2.83A1,1,0,0,1,20,11.46l-2.83,2.83A1,1,0,0,1,16.41,14.59Z"/></g></g></g></svg>