<svg xmlns="http://www.w3.org/2000/svg" viewBox="0 0 28 30"><defs><style>.cls-1{fill:#212121;}</style></defs><g id="Layer_2" data-name="Layer 2"><g id="_20_Bicycle_Line_Icon_Set" data-name="20 Bicycle Line Icon Set"><g id="Track"><path class="cls-1" d="M3,30a3,3,0,1,1,3-3A3,3,0,0,1,3,30Zm0-4a1,1,0,1,0,1,1A1,1,0,0,0,3,26Z"/><path class="cls-1" d="M27,7H20a1,1,0,0,1-1-1V1a1,1,0,0,1,1-1h7a1,1,0,0,1,1,1V6A1,1,0,0,1,27,7ZM21,5h5V2H21Z"/><path class="cls-1" d="M20,12a1,1,0,0,1-1-1V5.83a1,1,0,1,1,2,0V11A1,1,0,0,1,20,12Z"/><path class="cls-1" d="M22,28H5a1,1,0,0,1,0-2H22a4,4,0,0,0,0-8H8A6,6,0,0,1,8,6h8a1,1,0,0,1,0,2H8a4,4,0,0,0,0,8H22a6,6,0,0,1,0,12Z"/></g></g></g></svg>