<svg xmlns="http://www.w3.org/2000/svg" viewBox="0 0 30 25"><defs><style>.cls-1{fill:#212121;}</style></defs><g id="Layer_2" data-name="Layer 2"><g id="_20_Bicycle_Line_Icon_Set" data-name="20 Bicycle Line Icon Set"><g id="Tricycle"><path class="cls-1" d="M22,25a8,8,0,1,1,8-8A8,8,0,0,1,22,25Zm0-14a6,6,0,1,0,6,6A6,6,0,0,0,22,11Z"/><path class="cls-1" d="M5,25a5,5,0,1,1,5-5A5,5,0,0,1,5,25Zm0-8a3,3,0,1,0,3,3A3,3,0,0,0,5,17Z"/><path class="cls-1" d="M5,21a.92.92,0,0,1-.29,0A1,1,0,0,1,4,19.71l.48-1.53A17.15,17.15,0,0,1,21,6a1,1,0,0,1,0,2A15.17,15.17,0,0,0,6.43,18.76L6,20.29A1,1,0,0,1,5,21Z"/><path class="cls-1" d="M22,18a1,1,0,0,1-1-.92l-1-12a1,1,0,0,1,2-.16l1,12A1,1,0,0,1,22.08,18Z"/><path class="cls-1" d="M22.5,5H19a1,1,0,0,1,0-2h3.5a.5.5,0,0,0,0-1H22a1,1,0,0,1,0-2h.5a2.5,2.5,0,0,1,0,5Z"/><path class="cls-1" d="M14,7H11a1,1,0,0,1,0-2h3a1,1,0,0,1,0,2Z"/><path class="cls-1" d="M13,9a1,1,0,0,1-.89-.55l-1-2a1,1,0,0,1,1.78-.9l1,2a1,1,0,0,1-.44,1.34A.93.93,0,0,1,13,9Z"/></g></g></g></svg>