<svg xmlns="http://www.w3.org/2000/svg" viewBox="0 0 30 19.11"><defs><style>.cls-1{fill:#212121;}</style></defs><g id="Layer_2" data-name="Layer 2"><g id="_20_Bicycle_Line_Icon_Set" data-name="20 Bicycle Line Icon Set"><g id="Visor"><path class="cls-1" d="M18.51,19.11a3.42,3.42,0,0,1-3.36-3,.15.15,0,0,0-.3,0,3.44,3.44,0,0,1-3.62,3L9.92,19a45,45,0,0,1-6.38-1.35l-.4-.1A4.19,4.19,0,0,1,0,13.49V8a1,1,0,0,1,.35-.76A1.06,1.06,0,0,1,1.17,7,97.81,97.81,0,0,0,15,8,96.56,96.56,0,0,0,28.83,7a1.05,1.05,0,0,1,.82.23A1,1,0,0,1,30,8v5.48a4.18,4.18,0,0,1-3.15,4.06h0l-.36.09a40.51,40.51,0,0,1-7.82,1.48ZM15,14a2.15,2.15,0,0,1,2.13,1.85,1.43,1.43,0,0,0,1.45,1.26A39.57,39.57,0,0,0,26,15.7l.37-.1A2.19,2.19,0,0,0,28,13.48V9.17A101.94,101.94,0,0,1,15,10,107.05,107.05,0,0,1,2,9.16v4.33a2.18,2.18,0,0,0,1.64,2.12l.41.11a43.79,43.79,0,0,0,6,1.28q.63.06,1.26.09a1.46,1.46,0,0,0,1.53-1.24A2.16,2.16,0,0,1,15,14Zm11.6,2.57h0Z"/><path class="cls-1" d="M10.29,12.88h0c-1.82-.09-3.66-.22-5.34-.38A1,1,0,0,1,4,11.4a1,1,0,0,1,1.09-.9c1.64.16,3.45.29,5.24.38a1,1,0,0,1,.95,1A1,1,0,0,1,10.29,12.88Z"/><path class="cls-1" d="M1,9A1,1,0,0,1,.39,7.21l9-7a1,1,0,0,1,1.22,1.58l-9,7A1,1,0,0,1,1,9Z"/><path class="cls-1" d="M29,9a1,1,0,0,1-.61-.21l-9-7A1,1,0,1,1,20.61.21l9,7A1,1,0,0,1,29,9Z"/></g></g></g></svg>