<svg xmlns="http://www.w3.org/2000/svg" viewBox="0 0 12 30"><defs><style>.cls-1{fill:#212121;}</style></defs><g id="Layer_2" data-name="Layer 2"><g id="_20_Bicycle_Line_Icon_Set" data-name="20 Bicycle Line Icon Set"><g id="Water_Bottle" data-name="Water Bottle"><path class="cls-1" d="M11,11H1a1,1,0,0,1-1-1V4A1,1,0,0,1,1,3H11a1,1,0,0,1,1,1v6A1,1,0,0,1,11,11ZM2,9h8V5H2Z"/><rect class="cls-1" x="4" width="4" height="5" rx="1"/><path class="cls-1" d="M11,30H1a1,1,0,0,1-1-1V15a1,1,0,0,1,.11-.45l1-2A1,1,0,0,1,2,12h8a1,1,0,0,1,.89.55l1,2A1,1,0,0,1,12,15V29A1,1,0,0,1,11,30ZM2,28h8V15.24L9.38,14H2.62L2,15.24Z"/><path class="cls-1" d="M6,25A1.25,1.25,0,0,1,5.68,25a1,1,0,0,1-.63-1.27L5.61,22H5a1,1,0,0,1-.81-.42,1,1,0,0,1-.14-.9l1-3a1,1,0,1,1,1.9.64L6.39,20H7a1,1,0,0,1,.81.42,1,1,0,0,1,.14.9l-1,3A1,1,0,0,1,6,25Z"/><path class="cls-1" d="M10,14H2a1,1,0,0,1-1-1V10A1,1,0,0,1,2,9h8a1,1,0,0,1,1,1v3A1,1,0,0,1,10,14ZM3,12H9V11H3Z"/></g></g></g></svg>